<?xml version="1.0" encoding="iso-8859-1"?>
<!-- Generator: Adobe Illustrator 16.0.0, SVG Export Plug-In . SVG Version: 6.00 Build 0)  -->
<!DOCTYPE svg PUBLIC "-//W3C//DTD SVG 1.1//EN" "http://www.w3.org/Graphics/SVG/1.1/DTD/svg11.dtd">
<svg version="1.1" id="Capa_1" xmlns="http://www.w3.org/2000/svg" xmlns:xlink="http://www.w3.org/1999/xlink" x="0px" y="0px"
	 width="372.072px" height="372.072px" viewBox="0 0 372.072 372.072" style="enable-background:new 0 0 372.072 372.072;"
	 xml:space="preserve">
<g>
	<g id="_x32_39._Unlocked">
		<g>
			<path d="M280.242,152.252H126.546l-15.373-26.63c-17.34-30.035-7.057-68.444,22.997-85.787
				c30.036-17.348,68.441-7.053,85.781,22.984l31.402,54.389c4.348,7.514,13.938,10.078,21.451,5.746
				c7.506-4.342,10.083-13.934,5.743-21.447L247.146,47.12c-26.013-45.06-83.625-60.494-128.685-34.486
				c-45.063,26.014-60.494,83.631-34.48,128.69l6.39,11.071c-16.651,0.786-29.94,14.413-29.94,31.26v157.015
				c0,17.34,14.06,31.402,31.4,31.402h188.411c17.341,0,31.398-14.062,31.398-31.402V183.654
				C311.641,166.312,297.583,152.252,280.242,152.252z M280.242,340.669H91.832V183.663h188.411V340.669z M170.335,273.505v20.061
				c0,8.672,7.035,15.701,15.701,15.701c8.664,0,15.701-7.029,15.701-15.701v-20.061c9.337-5.438,15.701-15.457,15.701-27.039
				c0-17.352-14.062-31.41-31.402-31.41c-17.34,0-31.4,14.059-31.4,31.41C154.636,258.048,160.994,268.063,170.335,273.505z"/>
		</g>
	</g>
</g>
<g>
</g>
<g>
</g>
<g>
</g>
<g>
</g>
<g>
</g>
<g>
</g>
<g>
</g>
<g>
</g>
<g>
</g>
<g>
</g>
<g>
</g>
<g>
</g>
<g>
</g>
<g>
</g>
<g>
</g>
</svg>
